:SAMPLES-PER-SECOND 30
:FULLY-SPECIFIED
:DEGREES
133
root  34.83340646 36.48085707 -14.7096679 11.60982323 13.43246841 4.672162056
lowerback  -8.55576992 3.59844017 3.482260227
upperback  -4.438690186 4.183300018 -4.927649975
thorax  0.7989869714 1.83197999 -6.711279869
lowerneck  -15.89410019 -1.378900051 1.413800001
upperneck  11.2493 -3.302380085 6.306300163
head  6.117350101 -1.104120135 1.450839996
lclavicle  0 -4.497500157e-015 -2.743230041e-014
lhumerus  -43.22359848 26.28580093 68.34760284
lradius  -0.4927058518 -6.507048965e-006 26.61939812
lwrist  4.824992743e-007 -3.790274832e-007 -32.10160065
lhand  -3.513445985e-031 -36.77090073 -10.72990036
lfingers  90 7.125020027 -90
lthumb  94.76712799 -25.56932831 100.9359665
rclavicle  0 -4.497500157e-015 -2.743230041e-014
rhumerus  69.24269867 -0.8619291782 -52.94680023
rradius  -5.16745672e-007 2.214343908e-008 51.46440125
rwrist  1.129822067e-006 0.001802438172 -165.0310059
rhand  -3.197681024e-031 4.240640163 -4.992919922
rfingers  -90 -7.125020027 -90
rthumb  -83.81582642 -10.71817207 -59.77392197
rfemur  -13.88822269 10.16814327 15.12219715
rtibia  -3.140387297 2.65148735 24.03541756
rfoot  -2.731993675 -13.68128681 -45.41918182
rtoes  4.030930042 19.60330009 -101.8604584
lfemur  -11.99500084 -22.93624306 -18.45153618
ltibia  3.704599857 2.692267179 14.40122318
lfoot  0.751077652 -30.22070885 28.45173645
ltoes  -8.606805801 -18.12218094 -115.9480133
134
root  34.82839029 36.48073392 -14.71387458 11.67108631 13.66745186 4.753501415
lowerback  -8.562890053 3.617150307 3.561450243
upperback  -4.438690186 4.204400063 -4.935170174
thorax  0.8117930293 1.842800021 -6.762050152
lowerneck  -15.91590023 -1.439659953 1.329620004
upperneck  11.30650043 -3.381210089 6.371459961
head  6.143980026 -1.13906014 1.477329969
lclavicle  0 -4.497500157e-015 -2.743230041e-014
lhumerus  -43.20949936 26.31520081 68.33439636
lradius  -0.4927058518 -6.507048965e-006 26.60490227
lwrist  4.824992743e-007 -3.790274832e-007 -32.22819901
lhand  -3.524292251e-031 -36.78480148 -10.59710026
lfingers  90 7.125020027 -90
lthumb  94.74571991 -25.43851852 100.9387817
rclavicle  0 -4.497500157e-015 -2.743230041e-014
rhumerus  69.63059998 -0.9512603879 -53.04800034
rradius  -5.16745672e-007 2.214343908e-008 50.69219971
rwrist  1.129822067e-006 0.001802438172 -164.6349945
rhand  -3.193107435e-031 4.257309914 -5.060579777
rfingers  -90 -7.125020027 -90
rthumb  -83.84604645 -10.66047573 -59.76399231
rfemur  -13.95604229 10.09488869 15.11683273
rtibia  -3.224160671 2.630694866 24.15659523
rfoot  -2.81796813 -13.61903954 -45.57247162
rtoes  4.015721321 19.60330009 -101.8151321
lfemur  -12.06638527 -23.07838058 -18.47842026
ltibia  3.716875553 2.702058792 14.39118576
lfoot  0.7400137186 -30.22849655 28.32266426
ltoes  -8.611367226 -18.1200695 -115.9626846
135
root  34.82562388 36.47909089 -14.71870603 11.73376656 13.87379742 4.828230381
lowerback  -8.577579498 3.656699896 3.646509409
upperback  -4.423989773 4.254030228 -4.959370136
thorax  0.8499159813 1.869130015 -6.829919815
lowerneck  -15.9282999 -1.509089947 1.248299956
upperneck  11.31130028 -3.472929955 6.460189819
head  6.153329849 -1.180320024 1.509500027
lclavicle  0 -4.497500157e-015 -2.743230041e-014
lhumerus  -43.14580154 26.30340004 68.33799744
lradius  -0.4927058518 -6.507048965e-006 26.60329819
lwrist  4.824992743e-007 -3.790274832e-007 -32.38959885
lhand  -3.526670657e-031 -36.73759842 -10.57499981
lfingers  90 7.125020027 -90
lthumb  94.71903992 -25.41831589 100.8863525
rclavicle  0 -4.497500157e-015 -2.743230041e-014
rhumerus  70.00050354 -1.056049824 -53.17259979
rradius  -5.16745672e-007 2.214343908e-008 49.92419815
rwrist  1.129822067e-006 0.001802438172 -164.2599945
rhand  -3.170628377e-031 4.191790104 -5.394219875
rfingers  -90 -7.125020027 -90
rthumb  -84.03392029 -10.36903667 -59.85938263
rfemur  -14.04036903 9.997411728 15.11398029
rtibia  -3.308096647 2.63361764 24.28605652
rfoot  -2.876492023 -13.50717258 -45.63512802
rtoes  4.033239841 19.60330009 -101.8673401
lfemur  -12.12020874 -23.1404438 -18.50644112
ltibia  3.737859726 2.735050201 14.35566998
lfoot  0.7397741079 -30.27539253 28.19514084
ltoes  -8.596512794 -18.12693596 -115.9149323
136
root  34.82315784 36.47688017 -14.72269794 11.80972385 14.07189465 4.892602921
lowerback  -8.569369316 3.706339836 3.733389378
upperback  -4.407090187 4.318009853 -4.991439819
thorax  0.8807489872 1.902719975 -6.906690121
lowerneck  -15.98499966 -1.590710044 1.207299948
upperneck  11.37119961 -3.584850073 6.487569809
head  6.186349869 -1.231520057 1.513409972
lclavicle  0 -4.497500157e-015 -2.743230041e-014
lhumerus  -43.02640152 26.34749985 68.34220123
lradius  -0.4927058518 -6.507048965e-006 26.51669884
lwrist  4.824992743e-007 -3.790274832e-007 -32.45569992
lhand  -3.502458413e-031 -37.01720047 -10.8270998
lfingers  90 7.125020027 -90
lthumb  94.90375519 -25.65577698 101.2085648
rclavicle  0 -4.497500157e-015 -2.743230041e-014
rhumerus  70.32700348 -1.190300584 -53.15629959
rradius  -5.16745672e-007 2.214343908e-008 49.22980118
rwrist  1.129822067e-006 0.001802438172 -163.8970032
rhand  -3.182239786e-031 4.552420139 -5.219560146
rfingers  -90 -7.125020027 -90
rthumb  -83.84944916 -10.53667545 -59.48931885
rfemur  -14.13182449 9.91789341 15.11331272
rtibia  -3.378123522 2.629594088 24.40195465
rfoot  -2.940249443 -13.43551636 -45.71744919
rtoes  4.027376652 19.60330009 -101.8498688
lfemur  -12.18063545 -23.12590599 -18.52606964
ltibia  3.761124849 2.783648491 14.30837536
lfoot  0.7286567688 -30.34110641 28.01978302
ltoes  -8.584923744 -18.13228416 -115.8776855
137
root  34.82054463 36.4738164 -14.72602604 11.87672901 14.28110218 4.932476044
lowerback  -8.542949677 3.730469704 3.745980024
upperback  -4.40335989 4.351650238 -5.010769844
thorax  0.8773819804 1.920050025 -6.931970119
lowerneck  -16.04999924 -1.658310056 1.195770025
upperneck  11.44849968 -3.680830002 6.484469891
head  6.224840164 -1.275249958 1.504320025
lclavicle  0 -4.497500157e-015 -2.743230041e-014
lhumerus  -42.97639847 25.79240227 68.68920135
lradius  -0.4927058518 -6.507048965e-006 26.83740044
lwrist  4.824992743e-007 -3.790274832e-007 -31.9314003
lhand  -3.489742289e-031 -37.23160172 -10.94869995
lfingers  90 7.125020027 -90
lthumb  95.03165436 -25.76711082 101.449585
rclavicle  0 -4.497500157e-015 -2.743230041e-014
rhumerus  70.66649628 -1.335750937 -53.32089996
rradius  -5.16745672e-007 2.214343908e-008 48.49449921
rwrist  1.129822067e-006 0.001802438172 -163.5119934
rhand  -3.181177586e-031 4.534289837 -5.235429764
rfingers  -90 -7.125020027 -90
rthumb  -83.86245728 -10.52215576 -59.50860596
rfemur  -14.22172546 9.834291458 15.13366222
rtibia  -3.437714577 2.667817593 24.51296234
rfoot  -2.990939379 -13.31166744 -45.7809639
rtoes  4.018244267 19.60330009 -101.8226547
lfemur  -12.28343105 -23.16337204 -18.49872971
ltibia  3.754502058 2.822666645 14.33023167
lfoot  0.7159287333 -30.41215515 27.86162758
ltoes  -8.566979408 -18.14054489 -115.8200378
138
root  34.8145943 36.47088178 -14.72861373 11.8922863 14.51759052 4.973929882
lowerback  -8.581740379 3.749929905 3.761039734
upperback  -4.416079998 4.374559879 -5.025229931
thorax  0.89102 1.930819988 -6.951869965
lowerneck  -16.07360077 -1.716860056 1.171659946
upperneck  11.50959969 -3.75909996 6.482910156
head  6.250909805 -1.311990023 1.49969995
lclavicle  0 -4.497500157e-015 -2.743230041e-014
lhumerus  -42.97819901 25.50580025 68.85620117
lradius  -0.4927058518 -6.507048965e-006 27.02249908
lwrist  4.824992743e-007 -3.790274832e-007 -31.6502018
lhand  -3.498950551e-031 -37.24530029 -10.83619976
lfingers  90 7.125020027 -90
lthumb  95.01339722 -25.65637016 101.453598
rclavicle  0 -4.497500157e-015 -2.743230041e-014
rhumerus  71.02870178 -1.421138763 -53.52410126
rradius  -5.16745672e-007 2.214343908e-008 47.72909927
rwrist  1.129822067e-006 0.001802438172 -162.845993
rhand  -3.193311093e-031 4.381810188 -5.056729794
rfingers  -90 -7.125020027 -90
rthumb  -83.81095123 -10.66927624 -59.6413269
rfemur  -14.23676777 9.721216202 15.16431046
rtibia  -3.486572742 2.693810463 24.60331917
rfoot  -3.047566652 -13.2365551 -45.86494446
rtoes  4.009110451 19.60330009 -101.795433
lfemur  -12.27514267 -23.27183151 -18.50104713
ltibia  3.778535366 2.857131004 14.27497292
lfoot  0.71210289 -30.45848465 27.80182266
ltoes  -8.55761528 -18.14484787 -115.7899628
139
root  34.80977637 36.46975239 -14.73164145 11.91983128 14.76459599 5.014552593
lowerback  -8.6144104 3.752179861 3.750480175
upperback  -4.417729855 4.377739906 -5.028439999
thorax  0.9072380066 1.932929993 -6.947229862
lowerneck  -16.11630058 -1.777619958 1.144430041
upperneck  11.58329964 -3.839780092 6.474500179
head  6.284150124 -1.349699974 1.493010044
lclavicle  0 -4.497500157e-015 -2.743230041e-014
lhumerus  -42.91469955 25.64039993 68.80680084
lradius  -0.4927058518 -6.507048965e-006 26.88300133
lwrist  4.824992743e-007 -3.790274832e-007 -31.78750229
lhand  -3.520533994e-031 -36.8227005 -10.63710022
lfingers  90 7.125020027 -90
lthumb  94.77182007 -25.4763279 100.9828873
rclavicle  0 -4.497500157e-015 -2.743230041e-014
rhumerus  71.39910126 -1.422969103 -53.70710373
rradius  -5.16745672e-007 2.214343908e-008 47.03730011
rwrist  1.129822067e-006 0.001802438172 -162.1049957
rhand  -3.185045644e-031 4.759829998 -5.176459789
rfingers  -90 -7.125020027 -90
rthumb  -83.77185059 -10.5833292 -59.28168106
rfemur  -14.26536942 9.637989044 15.19987774
rtibia  -3.541024685 2.72675395 24.6964283
rfoot  -3.091599941 -13.13321877 -45.94404602
rtoes  3.994075537 19.60330009 -101.7506409
lfemur  -12.30815029 -23.35417557 -18.49336433
ltibia  3.784437418 2.899385691 14.26292229
lfoot  0.71210289 -30.54128456 27.67589951
ltoes  -8.577021599 -18.13592529 -115.8522949
